<svg width="100" height="142" viewBox="0 0 100 142" fill="none" xmlns="http://www.w3.org/2000/svg">
<g id="001-saving" clip-path="url(#clip0_13_65)">
<g id="pig">
<path id="Vector" d="M96.875 88.875H89.19C88.1242 85.5187 86.496 82.3679 84.375 79.5569V60.75H82.5528C79.571 60.7538 76.6247 61.3968 73.9125 62.6358C71.2003 63.8749 68.7853 65.681 66.8303 67.9325C64.3918 67.3227 61.8886 67.0096 59.375 67H40.625C34.4187 66.9975 28.3523 68.8437 23.1997 72.3033C18.0471 75.7628 14.0418 80.6789 11.6948 86.4242C9.34777 92.1696 8.7654 98.4839 10.022 104.562C11.2785 110.639 14.3171 116.205 18.75 120.549V135.75H34.375V128.872C36.4321 129.29 38.5259 129.5 40.625 129.5H59.375C61.4741 129.5 63.5679 129.29 65.625 128.872V135.75H81.25V120.549C84.9185 116.959 87.6456 112.52 89.19 107.625H96.875V88.875Z" fill="#FFDCB3"/>
<path id="Vector_2" d="M46.875 85.75C57.2303 85.75 65.625 77.3553 65.625 67C65.625 56.6447 57.2303 48.25 46.875 48.25C36.5197 48.25 28.125 56.6447 28.125 67C28.125 77.3553 36.5197 85.75 46.875 85.75Z" fill="white"/>
<path id="Vector_3" d="M75 95.125C76.7259 95.125 78.125 93.7259 78.125 92C78.125 90.2741 76.7259 88.875 75 88.875C73.2741 88.875 71.875 90.2741 71.875 92C71.875 93.7259 73.2741 95.125 75 95.125Z" fill="#333333"/>
<path id="Vector_4" d="M87.5 78.5419V57.625H82.5532C77.3976 57.6278 72.3809 59.2958 68.25 62.3807C67.1119 57.1019 64.0612 52.4309 59.6852 49.2669C55.3092 46.1029 49.9174 44.6696 44.548 45.2431C39.1785 45.8166 34.211 48.3563 30.602 52.3732C26.993 56.39 24.9976 61.6 25 67C25 67.2113 25.0257 67.4163 25.0313 67.625C18.267 71.0638 12.8322 76.6462 9.57566 83.5C8.53252 82.6292 7.69382 81.5394 7.11908 80.308C6.54434 79.0767 6.24764 77.7339 6.25004 76.375H3.73156e-05C-0.00578483 79.0252 0.669783 81.6323 1.96188 83.9461C3.25397 86.2599 5.1192 88.2026 7.37847 89.5879C5.89499 95.2191 5.87381 101.136 7.31696 106.778C8.7601 112.419 11.6198 117.599 15.625 121.826V138.875H37.5V132.483C38.5407 132.577 39.5844 132.625 40.625 132.625H59.375C60.4157 132.625 61.4594 132.578 62.5 132.483V138.875H84.375V121.825C87.4017 118.615 89.7862 114.856 91.4 110.75H100V85.75H91.3988C90.3914 83.2004 89.0825 80.7805 87.5 78.5419V78.5419ZM46.875 51.375C49.9654 51.375 52.9863 52.2914 55.5558 54.0083C58.1253 55.7252 60.128 58.1655 61.3107 61.0206C62.4933 63.8757 62.8027 67.0174 62.1998 70.0483C61.5969 73.0793 60.1088 75.8634 57.9236 78.0486C55.7384 80.2338 52.9543 81.7219 49.9233 82.3248C46.8924 82.9277 43.7507 82.6183 40.8956 81.4357C38.0405 80.253 35.6002 78.2503 33.8833 75.6808C32.1664 73.1113 31.25 70.0904 31.25 67C31.2549 62.8575 32.9027 58.8861 35.8319 55.9569C38.7611 53.0277 42.7325 51.3799 46.875 51.375V51.375ZM93.75 104.5H86.8972L86.2097 106.688C84.8148 111.091 82.3606 115.085 79.0625 118.318L78.125 119.237V132.625H68.75V125.052L65.0057 125.81C63.1521 126.185 61.266 126.374 59.375 126.375H40.625C38.7341 126.374 36.8479 126.185 34.9944 125.81L31.25 125.052V132.625H21.875V119.237L20.9375 118.318C17.8641 115.311 15.5227 111.637 14.0941 107.581C12.6655 103.524 12.1878 99.1941 12.6979 94.924C13.208 90.6539 14.6923 86.5581 17.0362 82.9525C19.3802 79.347 22.5211 76.3281 26.2166 74.1288C27.3258 77.3396 29.1667 80.2484 31.5938 82.625H25V88.875H68.75V82.625H62.1563C65.3962 79.4606 67.5718 75.3669 68.3816 70.911L69.1875 69.9847C72.2532 66.4546 76.5879 64.2766 81.25 63.9238V80.5972L81.875 81.4304C83.7845 83.9585 85.2501 86.793 86.2091 89.8125L86.8966 92H93.75V104.5Z" fill="#333333"/>
<path id="Vector_5" d="M56.25 63.875H50V57.625H43.75V70.125H56.25V63.875Z" fill="#333333"/>
</g>
<path id="micro-animation" d="M46.875 37.75C57.2303 37.75 65.625 29.3553 65.625 19C65.625 8.64466 57.2303 0.25 46.875 0.25C36.5197 0.25 28.125 8.64466 28.125 19C28.125 29.3553 36.5197 37.75 46.875 37.75Z" fill="url(#paint0_linear_13_65)"/>
</g>
<defs>
<linearGradient id="paint0_linear_13_65" x1="29.0539" y1="-1.38461" x2="71.2632" y2="4.30295" gradientUnits="userSpaceOnUse">
<stop stop-color="#FDE68A"/>
<stop offset="1" stop-color="#FACC15" stop-opacity="0.5"/>
</linearGradient>
<clipPath id="clip0_13_65">
<rect width="100" height="142" fill="white"/>
</clipPath>
</defs>
</svg>
