<svg width="100" height="100" viewBox="0 0 100 100" fill="none" xmlns="http://www.w3.org/2000/svg">
<g id="002-paint-brush">
<g id="micro-animation">
<circle id="Ellipse 14" cx="10" cy="86" r="6" fill="url(#paint0_linear_13_73)"/>
</g>
<g id="brush">
<path id="Vector" d="M35.8981 76.6133L23.5486 64.2638C23.5486 64.2638 12.2579 61.4236 5.13447 74.0877C-2.00063 86.7402 7.46238 98.5313 7.46238 98.5313C10.5237 92.8393 12.2696 93.4214 19.1021 91.8267C25.9345 90.2319 35.8983 84.9939 35.8981 76.6133Z" fill="#7C5748"/>
<path id="Vector_2" d="M28.2158 68.9313L23.5481 64.2635C23.5481 64.2635 12.2574 61.4233 5.13398 74.0875C-2.00112 86.7399 7.4619 98.531 7.4619 98.531C2.86428 81.572 22.6753 71.7014 28.2158 68.9313Z" fill="#5F4C44"/>
<path id="Vector_3" d="M9.31291 68.6519C7.84632 70.0253 6.42602 71.7944 5.13423 74.0876C-2.00087 86.74 7.46214 98.5311 7.46214 98.5311C10.5234 92.8392 12.2693 93.4212 19.1019 91.8265C20.2308 91.5587 21.4532 91.198 22.687 90.7323C22.3726 89.6032 22.4075 88.1716 23.3038 86.4373C23.3038 86.4373 18.3687 84.9939 15.0164 81.6416C14.2131 80.8383 13.7592 79.9654 13.4451 79.0229C12.4439 76.0196 13.0258 72.3649 9.31291 68.6519Z" fill="#FCD34D"/>
<path id="Vector_4" d="M9.31291 68.6519C7.84632 70.0253 6.42602 71.7944 5.13423 74.0876C-2.00087 86.74 7.46214 98.5311 7.46214 98.5311C5.25044 90.3831 8.67268 83.8883 13.4451 79.0229C12.4439 76.0196 13.0258 72.3649 9.31291 68.6519Z" fill="#D97706"/>
<path id="Vector_5" d="M44.2299 67.5284L31.4944 54.7929C30.485 53.7835 28.8485 53.7835 27.8394 54.7929L22.7861 59.8462C21.7767 60.8556 21.7767 62.4921 22.7861 63.5012L35.5215 76.2367C36.5309 77.246 38.1674 77.246 39.1766 76.2367L44.2299 71.1834C45.2392 70.174 45.2392 68.5377 44.2299 67.5284Z" fill="#C0C9D2"/>
<path id="Vector_6" d="M27.9241 64.9325L32.9255 59.9312C33.9491 58.9076 35.6088 58.9076 36.6327 59.9312L31.5202 54.8187C30.4966 53.7951 28.8368 53.7951 27.813 54.8187L22.8117 59.8201C21.788 60.8437 21.788 62.5034 22.8117 63.5273L27.9241 68.6397C26.9005 67.6161 26.9005 65.9561 27.9241 64.9325Z" fill="#A6AEBA"/>
<path id="Vector_7" d="M43.4004 66.6993C48.263 65.9892 55.2817 61.6379 66.5912 50.3286C86.1957 30.724 101.536 7.37109 96.5931 2.42894C91.6508 -2.51341 68.2982 12.8263 48.6935 32.4309C37.3844 43.7399 33.0327 50.7586 32.3225 55.6217" fill="#F89E00"/>
<path id="Vector_8" d="M53.1716 36.909C41.8625 48.2181 36.8432 54.5694 35.0936 58.3926L32.3228 55.6217C33.0329 50.7589 37.3842 43.7404 48.6937 32.4309C68.2983 12.8266 91.6508 -2.51316 96.5933 2.42918C94.1234 -0.0405248 72.7761 17.3045 53.1716 36.909Z" fill="#D38302"/>
<path id="Vector_9" d="M97.6442 1.38002C95.5057 -0.758832 91.5134 -0.414303 85.4388 2.43333C80.6359 4.68448 74.7338 8.42879 68.305 13.2975C67.6476 13.7955 67.5222 14.7356 68.0257 15.3887C68.5239 16.0348 69.4507 16.1561 70.1011 15.6631C85.7763 3.78117 93.8942 1.83099 95.5436 3.48039C96.8307 4.76749 96.0315 9.88757 89.5439 20.0828C83.7697 29.1564 75.0211 39.7979 65.5413 49.2783C56.0059 58.8139 48.9135 63.9983 43.8987 65.0967L33.9254 55.1233C35.0234 50.1087 40.2077 43.0166 49.7436 33.4805C54.4723 28.7521 59.6217 24.0859 64.707 19.918C65.3365 19.4019 65.4294 18.474 64.9185 17.8404L64.9183 17.8402C64.3997 17.1971 63.457 17.102 62.8179 17.6258C57.6598 21.8537 52.4377 26.5857 47.643 31.38C38.4634 40.5598 33.235 47.5115 31.444 52.9634C29.927 52.2283 28.0465 52.4851 26.7889 53.7425L21.7354 58.796C20.7315 59.7999 20.3651 61.2016 20.6312 62.4983C19.7608 62.504 18.7544 62.5747 17.6583 62.7668C16.7972 62.9178 16.2505 63.7758 16.4794 64.6196V64.6198C16.6818 65.3658 17.421 65.8237 18.1825 65.691C20.3495 65.3139 22.0841 65.5069 22.8091 65.625L34.392 77.2075C34.0387 82.386 29.1106 86.2696 24.0924 88.542C24.1893 88.0965 24.3559 87.6379 24.6005 87.167C24.7173 86.9418 24.7948 86.695 24.7924 86.4413C24.7864 85.7524 24.335 85.1924 23.7223 85.0132C23.6766 84.9999 19.1163 83.6411 16.0681 80.5929C14.8828 79.4077 14.6294 77.9419 14.3087 76.0869C13.9414 73.9605 13.4947 71.3824 11.4074 68.7686C11.7252 68.5156 12.0496 68.2764 12.3802 68.0516C13.0121 67.6217 13.2037 66.7758 12.8314 66.1084L12.8308 66.1074C12.4054 65.3451 11.4179 65.1123 10.6961 65.6033C8.00527 67.4336 5.70236 70.0301 3.83617 73.3423C0.711973 78.89 0.148696 85.1684 2.20786 91.4992C3.74671 96.2314 6.19533 99.3152 6.29865 99.4439C6.58204 99.797 7.00899 99.9998 7.45704 99.9998C7.50196 99.9998 7.54707 99.9978 7.59258 99.9937C8.08867 99.9484 8.5289 99.6574 8.76523 99.2189C11.0099 95.0508 12.0668 94.831 16.515 93.9055C17.3693 93.7277 18.3378 93.5262 19.4364 93.2691C23.6044 92.2938 27.8063 90.3508 30.9647 87.9379C34.5379 85.2081 36.6767 81.9667 37.2361 78.4739C37.2742 78.4749 37.3115 78.4794 37.3498 78.4794C38.4369 78.4794 39.4587 78.056 40.2277 77.2872L45.2811 72.2338C46.5388 70.976 46.7956 69.0951 46.06 67.5781C51.5125 65.7869 58.4637 60.5585 67.6431 51.3788C77.2694 41.7518 86.1656 30.9261 92.0509 21.6777C98.7315 11.1782 100.614 4.34914 97.6442 1.38002ZM18.7589 90.3764C17.6962 90.6252 16.7468 90.8225 15.9091 90.9969C11.8902 91.8332 9.73514 92.2815 7.38731 95.742C5.23166 92.1154 1.44732 83.6366 6.42404 74.8001C7.26993 73.2984 8.21152 71.9703 9.24218 70.8193C10.717 72.7531 11.0416 74.6273 11.3814 76.5929C11.7424 78.682 12.1158 80.8419 13.9673 82.6938C16.381 85.1073 19.4968 86.5879 21.3372 87.3161C21.0876 88.1327 20.9847 88.9409 21.0276 89.736C20.2435 89.993 19.4808 90.2074 18.7589 90.3764ZM43.1794 70.133L38.1259 75.1867C37.9181 75.3945 37.6423 75.5087 37.3486 75.5087C37.0548 75.5087 36.7791 75.3945 36.5713 75.1865L23.8356 62.4512C23.4069 62.0225 23.4069 61.3249 23.8356 60.8963L28.8891 55.8429C29.1033 55.6284 29.3848 55.5212 29.6664 55.5212C29.9481 55.5212 30.2295 55.6284 30.4438 55.8429L43.1794 68.5785C43.6081 69.007 43.6081 69.7045 43.1794 70.133Z" fill="#333333"/>
</g>
</g>
<defs>
<linearGradient id="paint0_linear_13_73" x1="4.29725" y1="79.4769" x2="17.8042" y2="81.2969" gradientUnits="userSpaceOnUse">
<stop stop-color="#FDE68A"/>
<stop offset="1" stop-color="#FACC15" stop-opacity="0.5"/>
</linearGradient>
</defs>
</svg>
