<svg width="100" height="100" viewBox="0 0 100 100" fill="none" xmlns="http://www.w3.org/2000/svg">
<g id="003-growth" clip-path="url(#clip0_13_86)">
<g id="Layer_x0020_1">
<g id="_322358928">
<path id="_212308968" fill-rule="evenodd" clip-rule="evenodd" d="M72.9689 94.1653C72.4847 94.1653 72.0911 93.7725 72.0911 93.2883L72.092 57.6629H63.9685V93.2883C63.9685 93.7722 63.5756 94.1653 63.0912 94.1653C62.6074 94.1653 62.2141 93.7725 62.2141 93.2883L62.2148 56.7856C62.2148 56.3014 62.607 55.9086 63.0912 55.9086H72.9689C73.4531 55.9086 73.8455 56.3014 73.8455 56.7856L73.8457 93.2883C73.8457 93.7722 73.4526 94.1653 72.9689 94.1653V94.1653Z" fill="#333333"/>
<path id="_212308080" fill-rule="evenodd" clip-rule="evenodd" d="M54.9391 94.1653C54.4549 94.1653 54.0613 93.7724 54.0613 93.2882L54.0622 69.0864H45.9387V93.2882C45.9387 93.7722 45.5456 94.1653 45.0614 94.1653C44.5756 94.1653 44.1843 93.7724 44.1843 93.2882L44.185 68.2091C44.185 67.7251 44.5749 67.332 45.0614 67.332H54.9391C55.4233 67.332 55.8157 67.7251 55.8157 68.2093L55.8159 93.2882C55.8159 93.7722 55.4228 94.1653 54.9391 94.1653Z" fill="#333333"/>
<path id="_212308056" fill-rule="evenodd" clip-rule="evenodd" d="M36.9076 94.1653C36.4234 94.1653 36.0296 93.7725 36.0296 93.2883V73.9885H27.9072V93.2883C27.9072 93.7723 27.5139 94.1653 27.0297 94.1653C26.5461 94.1653 26.1526 93.7725 26.1526 93.2883V73.1112C26.1526 72.627 26.5454 72.2341 27.0297 72.2341H36.9076C37.3918 72.2341 37.7839 72.627 37.7839 73.1112L37.7844 93.2883C37.7844 93.7723 37.3911 94.1653 36.9076 94.1653Z" fill="#333333"/>
<path id="_212307816" fill-rule="evenodd" clip-rule="evenodd" d="M18.8778 94.1654C18.3936 94.1654 18 93.7725 18 93.2883V80.51H9.87738V93.2883C9.87738 93.7723 9.48406 94.1654 8.99985 94.1654C8.51634 94.1654 8.12256 93.7725 8.12256 93.2883V79.6329C8.12256 79.1487 8.51565 78.7558 8.99985 78.7558L18.8778 78.7556C19.362 78.7556 19.7541 79.1487 19.7541 79.6329L19.7546 93.2883C19.7546 93.7723 19.3613 94.1654 18.8778 94.1654V94.1654Z" fill="#333333"/>
<path id="_212308128" fill-rule="evenodd" clip-rule="evenodd" d="M81.998 92.411H90.1216V39.8912H81.998V92.411ZM90.9984 94.1653H81.1212C80.637 94.1653 80.2437 93.7725 80.2437 93.2883L80.2443 39.0141C80.2443 38.5299 80.6365 38.1371 81.1207 38.1371H90.9984C91.4824 38.1371 91.8748 38.5299 91.8748 39.0144L91.875 93.2883C91.875 93.7723 91.4822 94.1653 90.9984 94.1653Z" fill="#333333"/>
<path id="_212308224" fill-rule="evenodd" clip-rule="evenodd" d="M9.92053 64.0109L11.5796 64.0953C28.6655 64.9565 46.1258 59.8445 60.7519 49.7045C72.7879 41.3577 82.4021 30.1422 88.5513 17.2636C88.7123 16.9323 89.0562 16.7358 89.424 16.7678C89.7896 16.802 90.0955 17.0601 90.1917 17.4142L91.8978 23.7873L95.1101 22.9283L91.0507 7.7861L75.9107 11.8429L76.77 15.0522L85.3951 12.7408C85.7222 12.6538 86.0682 12.7613 86.2876 13.0194C86.5074 13.2752 86.5596 13.636 86.4225 13.9445C80.5846 27.0972 71.0538 38.5186 58.8582 46.9725C44.8317 56.6966 28.0962 61.5986 11.7455 60.7762L10.088 60.6918L9.92053 64.0109ZM15.2955 65.9433C14.026 65.9433 12.7575 65.9113 11.492 65.8474L8.95742 65.7196C8.47322 65.6942 8.09974 65.2831 8.12258 64.7989L8.37864 59.7278C8.38994 59.4971 8.49513 59.2779 8.6663 59.1225C8.84024 58.9649 9.06838 58.8849 9.29907 58.8964L11.8354 59.0242C27.8041 59.8284 44.1477 55.0359 57.8603 45.5312C69.0946 37.7417 78.3361 26.9237 84.0446 14.9198L76.3774 16.9734C75.9086 17.0991 75.4281 16.8227 75.3028 16.3544L73.9875 11.4501C73.862 10.9818 74.1399 10.4999 74.6082 10.3765L91.4434 5.86496C91.9142 5.73947 92.3936 6.01583 92.5193 6.48412L97.0313 23.3213C97.091 23.5451 97.058 23.785 96.9415 23.9862C96.8278 24.1871 96.6354 24.3357 96.4091 24.3949L91.5052 25.7082C91.0376 25.834 90.5569 25.5576 90.4314 25.0893L89.0978 20.1121C82.7975 32.3875 73.3814 43.0825 61.7503 51.1458C47.8917 60.7534 31.5318 65.9433 15.2955 65.9433V65.9433Z" fill="#333333"/>
<path id="_212308008" fill-rule="evenodd" clip-rule="evenodd" d="M99.1232 94.1653H0.877986C0.39078 94.1653 0 93.7724 0 93.2882C0.000230685 92.8038 0.390549 92.4109 0.877063 92.4109H99.1232C99.6071 92.4109 100 92.8038 100 93.2882C100.001 93.7722 99.6071 94.1653 99.1232 94.1653Z" fill="#333333"/>
<path id="_212307648" fill-rule="evenodd" clip-rule="evenodd" d="M86.2877 13.0194C86.5075 13.2753 86.5597 13.6361 86.4226 13.9445C80.5847 27.0972 71.054 38.5187 58.8583 46.9726C44.8318 56.6966 28.0963 61.5987 11.7456 60.7763L10.0881 60.6918L9.92065 64.0109L11.5797 64.0954C28.6656 64.9565 46.1259 59.8445 60.752 49.7046C72.788 41.3577 82.4023 30.142 88.5514 17.2636C88.7124 16.9323 89.0564 16.7358 89.4241 16.7678C89.7897 16.802 90.0956 17.0601 90.1918 17.4145L91.8979 23.7874L95.1102 22.9283L91.0509 7.78613L75.9108 11.843L76.7701 15.0522L85.3952 12.7408C85.7223 12.6538 86.0683 12.7613 86.2877 13.0194V13.0194Z" fill="#CFD8DC"/>
<path id="_212308248" fill-rule="evenodd" clip-rule="evenodd" d="M81.998 39.8915V92.411H90.1216V39.8915H81.998Z" fill="#FF7F62"/>
<path id="_212308032" fill-rule="evenodd" clip-rule="evenodd" d="M63.9685 57.663V92.411H72.0912L72.0921 57.663H63.9685Z" fill="#FFCC80"/>
<path id="_322361448" fill-rule="evenodd" clip-rule="evenodd" d="M45.9387 69.0864V92.411H54.0616L54.0623 69.0864H45.9387Z" fill="#F48FB1"/>
<path id="_322370736" fill-rule="evenodd" clip-rule="evenodd" d="M27.907 73.9885V92.411H36.0294V73.9885H27.907Z" fill="#A5D6A7"/>
<path id="_322362264" fill-rule="evenodd" clip-rule="evenodd" d="M9.87744 80.5099V92.4109H18.0001V80.5099H9.87744Z" fill="#E57373"/>
</g>
</g>
<path id="micro-animation" d="M13 67C15.7614 67 18 64.7614 18 62C18 59.2386 15.7614 57 13 57C10.2386 57 8 59.2386 8 62C8 64.7614 10.2386 67 13 67Z" fill="url(#paint0_linear_13_86)"/>
</g>
<defs>
<linearGradient id="paint0_linear_13_86" x1="8.24771" y1="56.5641" x2="19.5035" y2="58.0808" gradientUnits="userSpaceOnUse">
<stop stop-color="#FDE68A"/>
<stop offset="1" stop-color="#FACC15" stop-opacity="0.5"/>
</linearGradient>
<clipPath id="clip0_13_86">
<rect width="100" height="100" fill="white"/>
</clipPath>
</defs>
</svg>
