<svg width="104" height="35" viewBox="0 0 104 35" fill="none" xmlns="http://www.w3.org/2000/svg">
<path d="M24.064 23.776C23.712 23.776 23.344 23.504 22.96 22.96C22.608 22.416 22.416 21.888 22.384 21.376C22.128 19.52 21.808 17.36 21.424 14.896C21.072 12.4 20.592 9.456 19.984 6.064C19.024 7.888 18.08 9.696 17.152 11.488C16.224 13.28 15.296 15.072 14.368 16.864C13.792 17.984 13.2 18.544 12.592 18.544C11.696 18.544 10.992 18.08 10.48 17.152C9.36 15.52 8.192 14 6.976 12.592C5.792 11.152 4.56 9.728 3.28 8.32C3.216 10.464 3.232 12.576 3.328 14.656C3.456 16.704 3.664 18.704 3.952 20.656C4.016 21.008 3.968 21.328 3.808 21.616C3.68 21.872 3.536 22.032 3.376 22.096C2.928 22.256 2.48 22.16 2.032 21.808C1.584 21.456 1.312 21.072 1.216 20.656C0.928 19.504 0.72 18.224 0.592 16.816C0.464 15.408 0.368 13.984 0.304 12.544C0.272 11.104 0.256 9.68 0.256 8.272C0.256 6.864 0.272 5.584 0.304 4.432C0.304 3.152 0.72 2.512 1.552 2.512C2.064 2.512 2.496 2.704 2.848 3.088C3.2 3.44 3.392 3.952 3.424 4.624C5.024 6.224 6.528 7.872 7.936 9.568C9.376 11.232 10.768 12.928 12.112 14.656C13.232 12.64 14.368 10.576 15.52 8.464C16.672 6.32 17.968 4.24 19.408 2.224C19.472 1.872 19.648 1.52 19.936 1.168C20.224 0.783998 20.544 0.527998 20.896 0.399998C21.248 0.271997 21.616 0.415998 22 0.831998C22.384 1.248 22.64 1.728 22.768 2.272C23.312 5.504 23.776 8.736 24.16 11.968C24.576 15.2 24.976 18.432 25.36 21.664C25.424 22.272 25.312 22.784 25.024 23.2C24.736 23.584 24.416 23.776 24.064 23.776ZM40.3049 5.248C41.2649 5.6 42.0649 6.128 42.7049 6.832C43.3769 7.536 43.8889 8.336 44.2409 9.232C44.5929 10.096 44.7849 10.992 44.8169 11.92C44.8809 12.848 44.7849 13.712 44.5289 14.512C44.1769 15.408 43.7289 16.288 43.1849 17.152C42.6409 18.016 42.0169 18.784 41.3129 19.456C40.6089 20.128 39.8089 20.672 38.9129 21.088C38.0169 21.504 37.0249 21.712 35.9369 21.712C34.6249 21.712 33.5209 21.408 32.6249 20.8C31.7289 20.192 31.0249 19.408 30.5129 18.448C30.0009 17.488 29.6649 16.4 29.5049 15.184C29.3769 13.968 29.4089 12.752 29.6009 11.536C29.7289 10.64 29.9369 9.776 30.2249 8.944C30.5449 8.08 30.9449 7.328 31.4249 6.688C31.9049 6.016 32.4489 5.472 33.0569 5.056C33.6969 4.64 34.4169 4.432 35.2169 4.432C35.6649 4.432 36.2249 4.528 36.8969 4.72C37.5689 4.88 38.1929 5.12 38.7689 5.44C39.1849 5.056 39.6969 4.992 40.3049 5.248ZM38.4809 8.752C38.1289 8.528 37.7129 8.24 37.2329 7.888C36.7849 7.504 36.3849 7.312 36.0329 7.312C35.6489 7.312 35.2649 7.488 34.8809 7.84C34.5289 8.192 34.2089 8.608 33.9209 9.088C33.6649 9.536 33.4409 10 33.2489 10.48C33.0569 10.96 32.9289 11.344 32.8649 11.632C32.7689 12.112 32.7049 12.688 32.6729 13.36C32.6409 14.032 32.6889 14.704 32.8169 15.376C32.9449 16.016 33.1849 16.608 33.5369 17.152C33.9209 17.664 34.4809 18.032 35.2169 18.256C35.6649 18.384 36.1929 18.384 36.8009 18.256C37.4089 18.096 38.0009 17.824 38.5769 17.44C39.1849 17.056 39.7449 16.544 40.2569 15.904C40.8009 15.264 41.2169 14.528 41.5049 13.696C41.8249 12.768 41.8249 11.808 41.5049 10.816C41.2169 9.792 40.6089 9.056 39.6809 8.608C39.4569 8.768 39.2329 8.848 39.0089 8.848C38.7849 8.848 38.6089 8.816 38.4809 8.752ZM59.7111 5.248C60.6711 5.6 61.4711 6.128 62.1111 6.832C62.7831 7.536 63.2951 8.336 63.6471 9.232C63.9991 10.096 64.1911 10.992 64.2231 11.92C64.2871 12.848 64.1911 13.712 63.9351 14.512C63.5831 15.408 63.1351 16.288 62.5911 17.152C62.0471 18.016 61.4231 18.784 60.7191 19.456C60.0151 20.128 59.2151 20.672 58.3191 21.088C57.4231 21.504 56.4311 21.712 55.3431 21.712C54.0311 21.712 52.9271 21.408 52.0311 20.8C51.1351 20.192 50.4311 19.408 49.9191 18.448C49.4071 17.488 49.0711 16.4 48.9111 15.184C48.7831 13.968 48.8151 12.752 49.0071 11.536C49.1351 10.64 49.3431 9.776 49.6311 8.944C49.9511 8.08 50.3511 7.328 50.8311 6.688C51.3111 6.016 51.8551 5.472 52.4631 5.056C53.1031 4.64 53.8231 4.432 54.6231 4.432C55.0711 4.432 55.6311 4.528 56.3031 4.72C56.9751 4.88 57.5991 5.12 58.1751 5.44C58.5911 5.056 59.1031 4.992 59.7111 5.248ZM57.8871 8.752C57.5351 8.528 57.1191 8.24 56.6391 7.888C56.1911 7.504 55.7911 7.312 55.4391 7.312C55.0551 7.312 54.6711 7.488 54.2871 7.84C53.9351 8.192 53.6151 8.608 53.3271 9.088C53.0711 9.536 52.8471 10 52.6551 10.48C52.4631 10.96 52.3351 11.344 52.2711 11.632C52.1751 12.112 52.1111 12.688 52.0791 13.36C52.0471 14.032 52.0951 14.704 52.2231 15.376C52.3511 16.016 52.5911 16.608 52.9431 17.152C53.3271 17.664 53.8871 18.032 54.6231 18.256C55.0711 18.384 55.5991 18.384 56.2071 18.256C56.8151 18.096 57.4071 17.824 57.9831 17.44C58.5911 17.056 59.1511 16.544 59.6631 15.904C60.2071 15.264 60.6231 14.528 60.9111 13.696C61.2311 12.768 61.2311 11.808 60.9111 10.816C60.6231 9.792 60.0151 9.056 59.0871 8.608C58.8631 8.768 58.6391 8.848 58.4151 8.848C58.1911 8.848 58.0151 8.816 57.8871 8.752ZM71.1494 6.16C71.2454 6.64 71.3414 7.184 71.4374 7.792C71.5654 8.368 71.6934 8.976 71.8214 9.616C71.9494 10.224 72.0614 10.848 72.1574 11.488C72.2534 12.128 72.3334 12.736 72.3974 13.312C72.7814 12.48 73.1974 11.6 73.6454 10.672C74.0934 9.744 74.5734 8.896 75.0854 8.128C75.6294 7.328 76.1894 6.672 76.7654 6.16C77.3734 5.648 78.0294 5.392 78.7334 5.392C79.7894 5.392 80.6694 5.776 81.3734 6.544C82.1094 7.312 82.7174 8.272 83.1974 9.424C83.7094 10.544 84.1094 11.728 84.3974 12.976C84.6854 14.224 84.9254 15.328 85.1174 16.288C85.3094 17.152 84.9254 17.792 83.9654 18.208C83.5174 18.432 83.1814 18.464 82.9574 18.304C82.7334 18.144 82.6054 17.984 82.5734 17.824C82.4134 17.44 82.2054 16.768 81.9494 15.808C81.7254 14.848 81.4534 13.872 81.1334 12.88C80.8454 11.888 80.5094 11.024 80.1254 10.288C79.7414 9.552 79.3094 9.216 78.8294 9.28C78.2534 9.312 77.7414 9.744 77.2934 10.576C76.9094 11.248 76.5094 12 76.0934 12.832C75.7094 13.632 75.3254 14.464 74.9414 15.328C74.5574 16.16 74.1734 17.008 73.7894 17.872C73.4374 18.704 73.1014 19.472 72.7814 20.176C72.5574 20.4 72.2694 20.56 71.9174 20.656C71.5974 20.72 71.2614 20.688 70.9094 20.56C70.5894 20.464 70.3334 20.304 70.1414 20.08C69.9494 19.856 69.8534 19.632 69.8534 19.408C69.5654 16.912 69.2614 14.64 68.9414 12.592C68.6534 10.544 68.2694 8.448 67.7894 6.304C67.5654 5.568 67.5174 4.992 67.6454 4.576C67.8054 4.128 68.2854 3.952 69.0854 4.048C70.2054 4.24 70.8934 4.944 71.1494 6.16ZM103.301 6.88C103.397 8.608 103.493 10.352 103.589 12.112C103.717 13.872 103.749 15.616 103.685 17.344C103.621 19.04 103.445 20.704 103.157 22.336C102.901 23.968 102.453 25.536 101.813 27.04C101.173 28.512 100.309 29.888 99.2211 31.168C98.1651 32.448 96.8211 33.6 95.1891 34.624C94.9331 34.784 94.6451 34.88 94.3251 34.912C94.0371 34.944 93.7491 34.928 93.4611 34.864C93.1731 34.832 92.9171 34.752 92.6931 34.624C92.4691 34.528 92.3251 34.384 92.2611 34.192C92.1651 33.904 92.2131 33.584 92.4051 33.232C92.5971 32.88 92.9171 32.512 93.3651 32.128C94.7731 31.072 95.9571 29.952 96.9171 28.768C97.8771 27.584 98.6451 26.304 99.2211 24.928C99.7971 23.552 100.165 22.064 100.325 20.464C100.517 18.832 100.517 17.056 100.325 15.136C99.9411 15.616 99.4931 16.112 98.9811 16.624C98.4691 17.136 97.9251 17.6 97.3491 18.016C96.7731 18.4 96.1811 18.736 95.5731 19.024C94.9651 19.28 94.3891 19.408 93.8451 19.408C93.3971 19.408 92.9491 19.312 92.5011 19.12C92.0531 18.928 91.6051 18.56 91.1571 18.016C90.6451 17.344 90.1811 16.592 89.7651 15.76C89.3811 14.896 89.0451 14.064 88.7571 13.264C88.4691 12.464 88.2291 11.744 88.0371 11.104C87.8771 10.464 87.7811 10.016 87.7491 9.76C87.6851 9.44 87.6851 9.136 87.7491 8.848C87.8131 8.56 88.0211 8.384 88.3731 8.32C88.8531 8.224 89.3011 8.256 89.7171 8.416C90.1331 8.576 90.4211 8.832 90.5811 9.184C90.7091 9.536 90.8851 10.08 91.1091 10.816C91.3331 11.552 91.6051 12.288 91.9251 13.024C92.2451 13.728 92.5811 14.352 92.9331 14.896C93.3171 15.44 93.7171 15.712 94.1331 15.712C94.6131 15.712 95.1731 15.472 95.8131 14.992C96.4851 14.512 97.1251 13.888 97.7331 13.12C98.3411 12.352 98.8531 11.504 99.2691 10.576C99.7171 9.616 99.9411 8.688 99.9411 7.792C99.9411 7.6 99.9731 7.376 100.037 7.12C100.101 6.864 100.197 6.624 100.325 6.4C100.453 6.144 100.597 5.936 100.757 5.776C100.949 5.584 101.141 5.472 101.333 5.44C101.845 5.376 102.293 5.52 102.677 5.872C103.093 6.192 103.301 6.528 103.301 6.88Z" fill="#713F12"/>
</svg>
